<svg style="display: none">

<symbol id="map-city"  viewBox="0 0 24 24" fill="none" xmlns="http://www.w3.org/2000/svg">
<path d="M5 9.92285C5 14.7747 9.24448 18.7869 11.1232 20.3252C11.3921 20.5454 11.5281 20.6568 11.7287 20.7132C11.8849 20.7572 12.1148 20.7572 12.271 20.7132C12.472 20.6567 12.6071 20.5463 12.877 20.3254C14.7557 18.7871 18.9999 14.7751 18.9999 9.9233C18.9999 8.08718 18.2625 6.32605 16.9497 5.02772C15.637 3.72939 13.8566 3 12.0001 3C10.1436 3 8.36301 3.7295 7.05025 5.02783C5.7375 6.32616 5 8.08674 5 9.92285Z" stroke="black" stroke-linecap="round" stroke-linejoin="round"/>
<path d="M10 9C10 10.1046 10.8954 11 12 11C13.1046 11 14 10.1046 14 9C14 7.89543 13.1046 7 12 7C10.8954 7 10 7.89543 10 9Z" stroke="black" stroke-linecap="round" stroke-linejoin="round"/>
</symbol>

<symbol id="list-btn"  viewBox="0 0 24 24" fill="none" xmlns="http://www.w3.org/2000/svg">
<path d="M4 18H14M4 14H20M4 10H14M4 6H20" stroke="white" stroke-linecap="round" stroke-linejoin="round"/>
</symbol>

<symbol id="left-btn" viewBox="0 0 9 16" fill="none" xmlns="http://www.w3.org/2000/svg">
<path d="M8.26318 1.26318L1.26318 8.26318L8.26318 15.2632" stroke="white" stroke-linecap="round" stroke-linejoin="round"/>
</symbol>

<symbol id="right-btn"  viewBox="0 0 9 16" fill="none" xmlns="http://www.w3.org/2000/svg">
<path d="M0.736816 1.26318L7.73682 8.26318L0.736816 15.2632" stroke="white" stroke-linecap="round" stroke-linejoin="round"/>
</symbol>

<symbol id="like-btn"  viewBox="0 0 18 17" fill="none" xmlns="http://www.w3.org/2000/svg">
<path d="M16.2373 2.23731C17.7839 3.78395 17.8432 6.27268 16.3718 7.89114L8.99949 16.0001L1.62812 7.89111C0.156794 6.27265 0.216048 3.7839 1.76269 2.23726C3.48961 0.510338 6.33372 0.66814 7.85937 2.5752L9 4.00045L10.1396 2.57504C11.6653 0.667978 14.5104 0.510393 16.2373 2.23731Z" stroke="black" stroke-linecap="round" stroke-linejoin="round"/>
</symbol>

<symbol id="login-profile" width="24" height="24" fill="none" xmlns="http://www.w3.org/2000/svg">
<path d="M19 21C19 17.134 15.866 14 12 14C8.13401 14 5 17.134 5 21M12 11C9.79086 11 8 9.20914 8 7C8 4.79086 9.79086 3 12 3C14.2091 3 16 4.79086 16 7C16 9.20914 14.2091 11 12 11Z" stroke="black" stroke-linecap="round" stroke-linejoin="round"/>
</symbol>

<symbol  id="message" viewBox="0 0 18 21" fill="none" xmlns="http://www.w3.org/2000/svg">
<path d="M2 2L8.10764 6.61227L8.10967 6.61396C8.78785 7.11128 9.12714 7.3601 9.49876 7.45621C9.82723 7.54117 10.1725 7.54117 10.501 7.45621C10.8729 7.36001 11.2132 7.11047 11.8926 6.61227C11.8926 6.61227 15.8101 3.60594 18 2M1 11.8002V4.2002C1 3.08009 1 2.51962 1.21799 2.0918C1.40973 1.71547 1.71547 1.40973 2.0918 1.21799C2.51962 1 3.08009 1 4.2002 1H15.8002C16.9203 1 17.4796 1 17.9074 1.21799C18.2837 1.40973 18.5905 1.71547 18.7822 2.0918C19 2.5192 19 3.07899 19 4.19691V11.8036C19 12.9215 19 13.4805 18.7822 13.9079C18.5905 14.2842 18.2837 14.5905 17.9074 14.7822C17.48 15 16.921 15 15.8031 15H4.19691C3.07899 15 2.5192 15 2.0918 14.7822C1.71547 14.5905 1.40973 14.2842 1.21799 13.9079C1 13.4801 1 12.9203 1 11.8002Z" stroke="black" stroke-linecap="round" stroke-linejoin="round"/>
</symbol>

<symbol id="cart"   fill="none" xmlns="http://www.w3.org/2000/svg">
<path d="M8.5 8H7.27734C5.97772 8 5.32845 8 4.86621 8.26514C4.46058 8.49781 4.14877 8.86535 3.98595 9.30371C3.80053 9.80294 3.90726 10.4433 4.12065 11.7237L4.12109 11.7261L5.05443 17.3261C5.21276 18.276 5.29244 18.7512 5.52947 19.1077C5.73841 19.4219 6.0317 19.6703 6.37598 19.8247C6.76653 19.9999 7.24787 20 8.21094 20H16.7893C17.7524 20 18.2334 19.9999 18.624 19.8247C18.9682 19.6703 19.2618 19.4219 19.4707 19.1077C19.7077 18.7512 19.787 18.276 19.9453 17.3261L20.8786 11.7261L20.8796 11.7222C21.0928 10.4428 21.1995 9.80274 21.0141 9.30371C20.8513 8.86535 20.5402 8.49781 20.1346 8.26514C19.6724 8 19.022 8 17.7224 8H16.5M8.5 8H16.5M8.5 8C8.5 5.79086 10.2909 4 12.5 4C14.7091 4 16.5 5.79086 16.5 8" stroke="black" stroke-linecap="round" stroke-linejoin="round"/>
</symbol>

<symbol id="alerts"  viewBox="0 0 18 20" fill="none" xmlns="http://www.w3.org/2000/svg">
<path d="M12 15V16C12 17.6569 10.6569 19 9 19C7.34315 19 6 17.6569 6 16V15M12 15H6M12 15H15.5905C15.973 15 16.1652 15 16.3201 14.9478C16.616 14.848 16.8475 14.6156 16.9473 14.3198C16.9997 14.1643 16.9997 13.9715 16.9997 13.5859C16.9997 13.4172 16.9995 13.3329 16.9863 13.2524C16.9614 13.1004 16.9024 12.9563 16.8126 12.8312C16.7651 12.7651 16.7048 12.7048 16.5858 12.5858L16.1963 12.1963C16.0706 12.0706 16 11.9001 16 11.7224V8C16 4.134 12.866 0.999991 9 1C5.13401 1.00001 2 4.13401 2 8V11.7224C2 11.9002 1.92924 12.0706 1.80357 12.1963L1.41406 12.5858C1.29476 12.7051 1.23504 12.765 1.1875 12.8312C1.09766 12.9564 1.03815 13.1004 1.0132 13.2524C1 13.3329 1 13.4172 1 13.586C1 13.9715 1 14.1642 1.05245 14.3197C1.15225 14.6156 1.3848 14.848 1.68066 14.9478C1.83556 15 2.02701 15 2.40956 15H6" stroke="black" stroke-linecap="round" stroke-linejoin="round"/>
</symbol>

<symbol id="like"  viewBox="0 0 18 20" fill="none" xmlns="http://www.w3.org/2000/svg">
<path d="M16.2373 2.23731C17.7839 3.78395 17.8432 6.27268 16.3718 7.89114L8.99949 16.0001L1.62812 7.89111C0.156794 6.27265 0.216048 3.7839 1.76269 2.23726C3.48961 0.510338 6.33372 0.66814 7.85937 2.5752L9 4.00045L10.1396 2.57504C11.6653 0.667978 14.5104 0.510393 16.2373 2.23731Z" stroke="black" stroke-linecap="round" stroke-linejoin="round"/>
</symbol>

<symbol id="closeBtn" width="24" height="24" viewBox="0 0 24 24" fill="none" xmlns="http://www.w3.org/2000/svg">
<g id="Close" clip-path="url(#clip0_59_2623)">
<g id="Frame" clip-path="url(#clip1_59_2623)">
<path id="Vector" d="M18 6L6 18"  stroke-linecap="round" stroke-linejoin="round"/>
<path id="Vector_2" d="M6 6L18 18"  stroke-linecap="round" stroke-linejoin="round"/>
</g>
</g>
<defs>
<clipPath id="clip0_59_2623">
<rect width="24" height="24" fill="white"/>
</clipPath>
<clipPath id="clip1_59_2623">
<rect width="24" height="24" fill="white"/>
</clipPath>
</defs>
</symbol>

<symbol id="vk" width="29" height="28" viewBox="0 0 29 28" fill="none" xmlns="http://www.w3.org/2000/svg">
<path d="M3.5 13.56C3.5 8.58197 3.5 6.09295 5.04648 4.54648C6.59295 3 9.08197 3 14.06 3H14.94C19.918 3 22.407 3 23.9535 4.54648C25.5 6.09295 25.5 8.58197 25.5 13.56V14.44C25.5 19.418 25.5 21.907 23.9535 23.4535C22.407 25 19.918 25 14.94 25H14.06C9.08197 25 6.59295 25 5.04648 23.4535C3.5 21.907 3.5 19.418 3.5 14.44V13.56Z" fill="white"/>
<path d="M15.2064 18.9C10.184 18.9 7.31931 15.4465 7.19995 9.69995H9.71574C9.79838 13.9178 11.6531 15.7043 13.1221 16.0727V9.69995H15.4911V13.3376C16.9418 13.181 18.4658 11.5234 18.98 9.69995H21.349C20.9541 11.947 19.3014 13.6046 18.1262 14.2861C19.3014 14.8387 21.1838 16.2845 21.9 18.9H19.2923C18.7322 17.1502 17.3366 15.7964 15.4911 15.6123V18.9H15.2064Z" fill="#0077FF"/>
</symbol>

</svg>